<?xml version="1.0" standalone="no"?>
<!DOCTYPE svg PUBLIC "-//W3C//DTD SVG 20010904//EN"
 "http://www.w3.org/TR/2001/REC-SVG-20010904/DTD/svg10.dtd">
<svg version="1.0" xmlns="http://www.w3.org/2000/svg"
 width="542.000000pt" height="542.000000pt" viewBox="0 0 542.000000 542.000000"
 preserveAspectRatio="xMidYMid meet">
<metadata>
Created by potrace 1.14, written by Peter Selinger 2001-2017
</metadata>
<g transform="translate(0.000000,542.000000) scale(0.100000,-0.100000)"
fill="#000000" stroke="none">
<path d="M1210 5409 c-237 -7 -277 -11 -287 -25 -9 -12 -10 -91 -6 -315 l6
-299 -120 0 c-84 0 -124 -4 -131 -12 -5 -7 -13 -104 -17 -214 l-7 -202 -42
-12 c-213 -63 -382 -257 -480 -550 -82 -246 -120 -521 -120 -875 0 -413 55
-729 184 -1073 38 -100 39 -105 24 -135 -63 -120 -72 -280 -21 -345 9 -11 13
-11 22 1 6 9 39 23 72 31 122 32 271 89 408 156 180 88 305 166 305 190 0 20
-25 44 -38 36 -4 -3 -7 8 -4 23 3 25 -3 33 -57 69 -61 40 -156 82 -189 82 -30
0 -40 14 -76 102 -101 252 -139 476 -152 903 -12 400 29 586 159 723 36 38 47
40 47 10 0 -13 9 -62 19 -110 14 -67 15 -88 6 -88 -7 0 -18 -7 -25 -15 -10
-12 -10 -18 0 -30 10 -12 38 -15 130 -15 l118 0 6 -127 c13 -252 29 -427 42
-458 l13 -32 152 -6 c84 -4 249 -7 367 -7 l214 0 -6 -62 c-3 -35 -9 -201 -12
-370 -4 -170 -10 -308 -13 -308 -3 0 -6 -123 -6 -272 0 -150 -4 -504 -9 -785
l-9 -513 -36 -5 c-280 -43 -492 -148 -555 -274 -31 -61 -39 -103 -31 -157 l6
-44 688 0 c603 0 690 2 701 15 19 23 4 119 -29 190 -15 33 -48 81 -73 106 -49
48 -153 108 -227 130 l-43 13 6 65 c21 234 42 767 62 1571 9 377 20 688 23
691 3 4 253 10 555 14 l549 7 -7 -264 c-4 -145 -11 -391 -16 -548 -5 -157 -13
-509 -16 -782 -6 -406 -10 -498 -21 -498 -7 0 -13 -9 -13 -20 0 -12 7 -20 16
-20 14 0 15 -7 10 -37 -3 -21 -6 -68 -6 -105 l0 -66 -67 -22 c-175 -56 -322
-174 -378 -302 -17 -37 -35 -68 -41 -68 -20 0 -26 -33 -9 -49 13 -14 98 -16
689 -19 760 -5 696 -12 674 76 -40 164 -187 310 -367 363 l-43 13 6 135 c17
348 26 611 32 906 4 185 11 325 17 333 6 8 6 16 -1 25 -6 7 -12 159 -16 377
-4 201 -10 412 -15 470 -4 58 -7 107 -5 108 1 2 92 6 201 9 109 3 203 10 210
15 7 5 26 7 42 3 47 -10 52 12 64 267 8 173 14 228 24 228 7 0 62 -7 124 -16
84 -11 114 -12 125 -3 11 9 14 66 16 295 l3 284 69 -52 c96 -72 176 -173 241
-303 90 -184 124 -341 132 -617 8 -256 -13 -446 -78 -729 -18 -75 -29 -144
-26 -153 4 -9 17 -16 30 -16 27 0 45 39 83 173 10 37 22 67 26 67 4 0 45 -11
90 -24 46 -13 115 -29 155 -36 l72 -12 -5 -31 c-22 -129 -55 -284 -70 -326 -3
-9 -21 2 -57 36 -106 100 -212 144 -357 146 -112 2 -184 -17 -258 -66 -27 -19
-57 -37 -66 -40 -9 -4 -16 -12 -16 -20 0 -24 739 -467 779 -467 26 0 38 25 22
44 -10 12 -8 15 11 18 22 3 23 7 22 84 -1 64 -6 92 -27 137 -25 55 -25 56 -6
62 25 8 30 22 62 165 128 570 103 1186 -69 1709 -132 401 -342 673 -598 772
-39 15 -96 32 -127 38 l-56 12 -7 132 c-5 106 -10 134 -23 145 -11 8 -55 12
-130 12 -62 0 -113 3 -114 8 0 4 -4 113 -9 242 -9 249 -30 380 -67 408 -13 9
-294 12 -1332 10 -724 0 -1440 -5 -1591 -9z m2893 -151 c9 -51 21 -144 27
-206 14 -142 19 -2182 6 -2182 -5 0 -17 7 -27 16 -15 14 -130 16 -1111 16
-978 0 -1354 -6 -1830 -28 l-136 -7 5 284 c3 156 1 424 -5 594 -7 171 -14 409
-17 530 -14 614 -17 715 -25 780 -22 173 -8 233 61 258 57 21 769 33 2090 35
l946 2 16 -92z m505 -899 c84 -37 187 -107 241 -162 l43 -45 -35 -59 c-19 -32
-62 -106 -95 -165 l-59 -107 -51 39 c-29 21 -74 49 -100 62 l-49 23 -6 110
c-4 61 -7 163 -7 228 l0 117 28 -6 c15 -4 55 -20 90 -35z m-3954 -266 c4 -104
11 -219 15 -258 14 -121 6 -118 -172 61 l-157 157 78 77 c68 67 187 149 218
150 7 0 13 -63 18 -187z m4350 -82 c48 -72 97 -165 132 -251 l22 -55 -62 -26
c-35 -15 -93 -45 -130 -68 -38 -22 -70 -41 -72 -41 -2 0 -16 21 -31 48 -15 26
-50 75 -76 110 l-48 63 69 107 c38 59 82 129 97 155 32 56 35 55 99 -42z
m-4623 -68 c30 -34 91 -102 136 -151 l82 -89 -25 -24 c-14 -13 -42 -50 -61
-81 -20 -32 -37 -58 -38 -58 -2 0 -62 29 -134 65 -72 36 -135 65 -139 65 -4 0
-13 5 -19 11 -9 9 -5 30 14 83 29 81 113 248 124 244 3 -2 31 -31 60 -65z
m-64 -379 c139 -74 144 -77 138 -103 -18 -69 -34 -183 -35 -244 l0 -67 -22 14
c-38 24 -153 55 -233 62 l-75 7 6 51 c16 141 59 356 70 356 4 0 71 -34 151
-76z m4899 -39 c17 -61 34 -126 37 -145 l7 -35 -123 -34 c-67 -18 -127 -35
-133 -37 -5 -3 -16 19 -23 48 -7 29 -26 86 -41 125 l-28 73 36 22 c52 32 205
98 222 95 9 -1 25 -41 46 -112z m83 -390 c12 -77 21 -155 21 -172 l0 -33 -79
0 c-43 0 -105 -3 -139 -6 l-60 -7 -7 69 c-3 38 -12 107 -18 154 l-12 85 130
31 c72 17 133 28 137 25 4 -3 16 -69 27 -146z m-5124 40 c22 -3 76 -17 120
-31 44 -14 89 -23 100 -20 19 5 20 0 22 -160 l2 -164 -42 0 c-23 0 -99 3 -169
7 l-128 6 0 157 c0 193 4 221 34 215 11 -2 39 -7 61 -10z m5026 -305 l129 0 0
-145 0 -146 -52 8 c-29 4 -97 8 -152 8 l-98 0 6 44 c3 24 6 89 6 143 0 87 2
99 16 94 9 -3 74 -6 145 -6z m-1561 -87 c0 -16 -3 -65 -7 -110 l-6 -83 -143 0
-144 0 0 110 0 110 150 0 150 0 0 -27z m-1553 -120 c-4 -71 -7 -159 -7 -197 0
-60 -2 -67 -15 -56 -11 9 -52 11 -151 8 l-137 -4 6 118 c4 64 10 149 13 188
l7 70 145 0 145 0 -6 -127z m-1662 -18 c4 -55 11 -121 15 -147 l7 -47 -45 -7
c-25 -4 -100 -7 -166 -8 l-121 -1 -11 80 c-7 44 -15 121 -19 170 l-7 90 170
-15 170 -14 7 -101z m3205 -208 c0 -56 -3 -118 -6 -138 l-6 -36 -92 -6 c-50
-4 -115 -10 -143 -13 l-53 -7 0 89 c0 49 3 118 6 154 l6 65 144 -3 144 -3 0
-102z m1630 95 l65 -7 -1 -60 c0 -33 -4 -95 -8 -137 -7 -75 -9 -78 -33 -78
-23 0 -284 50 -291 56 -6 4 32 229 39 234 9 6 135 2 229 -8z m-4783 -240 c14
-57 23 -104 22 -106 -8 -5 -314 -85 -316 -82 -3 3 -47 201 -57 253 l-5 32 152
4 c84 1 158 3 166 2 9 0 22 -34 38 -103z m1595 -74 l-4 -158 -155 0 -156 0 6
98 c4 53 7 123 7 154 l0 57 143 -6 c108 -4 146 -3 151 6 5 7 9 11 10 9 1 -2 0
-74 -2 -160z m1548 -183 l0 -174 -151 2 -152 2 8 160 c4 88 9 162 11 165 3 2
58 7 122 11 64 3 127 6 140 7 l22 2 0 -175z m-3090 83 c0 -7 17 -47 38 -89
l37 -76 -62 -11 c-84 -14 -157 -49 -220 -106 l-52 -47 -25 83 c-14 46 -31 106
-40 134 l-14 52 96 22 c54 12 120 28 147 35 65 17 95 18 95 3z m1411 -108
l119 0 0 -92 c0 -51 -3 -123 -6 -159 l-7 -66 -101 -7 c-55 -3 -120 -9 -143
-12 l-43 -7 0 178 0 178 31 -7 c17 -3 85 -6 150 -6z m1552 -197 l127 -6 1
-191 c0 -105 2 -199 4 -208 2 -10 0 -20 -3 -22 -4 -2 -76 -7 -159 -11 l-153
-7 0 89 c0 48 3 152 7 231 6 140 7 143 27 137 12 -3 78 -9 149 -12z m-1446
-300 c-4 -69 -8 -127 -9 -128 -2 -2 -68 -6 -146 -10 l-144 -7 4 128 3 129 55
6 c30 3 97 6 149 7 l94 2 -6 -127z m-8 -313 c-1 -103 -4 -129 -14 -120 -8 7
-29 7 -61 1 -27 -5 -86 -13 -131 -16 l-83 -8 0 137 0 136 145 0 146 0 -2 -130z
m1591 -10 l0 -140 -92 0 c-85 -1 -110 -4 -205 -25 l-33 -7 0 125 c0 68 3 139
6 156 l7 31 158 0 159 0 0 -140z m-1600 -285 l0 -145 -145 0 -145 0 0 63 c0
34 3 92 6 128 l7 66 111 6 c61 3 122 10 136 15 14 6 26 11 28 11 1 1 2 -64 2
-144z m1600 -47 l0 -143 -176 -2 -176 -1 6 45 c3 25 6 87 6 137 l0 92 35 1
c24 1 35 -3 35 -13 0 -18 27 -18 37 1 6 11 34 15 113 18 58 1 108 4 113 5 4 1
7 -62 7 -140z m-1600 -274 l0 -121 -47 9 c-27 4 -96 9 -155 10 l-106 1 4 91
c8 151 -9 136 159 134 l145 -2 0 -122z m1600 -14 l0 -95 -180 0 -180 0 0 30
c0 17 3 60 6 97 l7 66 173 -1 174 -2 0 -95z"/>
<path d="M2447 5149 c-309 -29 -575 -144 -752 -323 -81 -83 -136 -172 -168
-271 -42 -133 -25 -415 28 -469 12 -12 43 -14 182 -10 149 4 827 21 1611 40
206 5 275 10 283 20 14 17 -10 174 -46 299 -29 101 -93 242 -150 331 -21 32
-72 94 -114 137 -121 125 -251 196 -425 231 -96 20 -319 28 -449 15z m468
-108 c316 -83 522 -328 615 -734 12 -54 21 -99 19 -101 -2 -2 -150 -6 -329 -8
l-325 -3 0 56 c0 94 -67 171 -194 221 -46 18 -76 22 -174 23 l-117 0 -12 35
c-8 26 -160 397 -194 477 -4 7 20 17 68 28 129 28 199 34 383 30 143 -2 197
-7 260 -24z"/>
<path d="M1499 3616 c-33 -19 -79 -86 -79 -114 0 -33 35 -97 66 -121 17 -13
41 -21 66 -21 83 0 138 57 138 143 0 40 -5 53 -33 83 -28 31 -41 37 -83 40
-31 3 -58 -1 -75 -10z m91 -61 c35 -18 46 -47 30 -85 -17 -40 -62 -58 -95 -36
-44 29 -47 102 -5 123 32 16 35 16 70 -2z"/>
<path d="M3665 3601 c-11 -5 -25 -6 -30 -4 -6 2 -22 -8 -35 -22 -35 -38 -40
-119 -8 -165 27 -40 61 -60 103 -60 63 0 135 72 135 135 0 34 -30 89 -57 103
-28 15 -86 22 -108 13z m83 -71 c46 -43 11 -120 -54 -120 -23 0 -38 8 -53 26
-28 35 -26 62 5 90 31 29 73 31 102 4z"/>
<path d="M2413 3261 c-196 -6 -234 -14 -205 -43 10 -10 96 -13 360 -13 335 0
347 1 350 19 10 49 -18 50 -505 37z"/>
</g>
</svg>
